# File created by Blade
# Date/Time:  Thu Sep 25 15:31:15 2014
# Frame Rate: 120.000 fps
#------------------------------------------------------
:FULLY-SPECIFIED
:DEGREES
639
root -13.484188 35.578500 -0.463266 214.473028 -66.413820 -24.875372
Spine -32.341318 14.252738 -5.301774
Head -88.427034 9.136695 -3.606505
LeftShoulder -21.504596 5.926812 18.123399
LeftArm 118.564819 -52.956826 -72.984228
LeftForeArm 7.963547 -0.000000 26.381551
LeftHand -41.906373 -0.000000 91.820747
LeftHandThumb1 -26.253704 0.000000 33.147579
RightShoulder -14.880550 19.132198 -28.634440
RightArm 103.190528 38.778957 55.419072
RightForeArm -11.897274 -0.000000 29.133457
RightHand -6.781436 0.000000 -77.788667
RightHandThumb1 -24.326973 -0.000000 -32.862282
LeftUpLeg -76.348346 28.151563 17.655346
LeftLeg 7.812598 -0.000000 -0.000000
LeftFoot 28.061635 28.693910 -13.826663
LeftToeBase 6.144939 -0.000000 -0.000000
RightUpLeg 23.029445 11.866953 -28.752840
RightLeg 97.313408 -0.000000 -0.000000
RightFoot 36.387653 -16.690284 -3.318064
RightToeBase 16.810272 -0.000000 -0.000000
640
root -13.388839 35.589079 -0.437546 214.436723 -66.284449 -25.326029
Spine -31.922517 14.331294 -5.418474
Head -88.482145 9.050363 -3.591463
LeftShoulder -21.511014 5.671076 18.272998
LeftArm 118.509251 -52.644063 -73.058848
LeftForeArm 8.230139 -0.000000 26.310126
LeftHand -41.912973 -0.000000 91.713715
LeftHandThumb1 -26.253704 0.000000 33.147579
RightShoulder -14.790804 19.148688 -28.665139
RightArm 103.056456 38.915161 55.403068
RightForeArm -11.922149 -0.000000 29.161553
RightHand -6.826091 -0.000000 -77.644269
RightHandThumb1 -24.326973 -0.000000 -32.862282
LeftUpLeg -76.874384 28.160649 17.443748
LeftLeg 7.702579 -0.000000 -0.000000
LeftFoot 27.016565 28.586362 -14.598174
LeftToeBase 5.882998 -0.000000 -0.000000
RightUpLeg 22.731207 12.049945 -28.565750
RightLeg 95.186774 -0.000000 -0.000000
RightFoot 36.547364 -16.484331 -3.056996
RightToeBase 16.322039 -0.000000 -0.000000
641
root -13.295855 35.595040 -0.409104 214.561745 -66.165114 -25.926097
Spine -31.508383 14.370788 -5.608362
Head -88.621600 8.933940 -3.575109
LeftShoulder -21.529336 5.434740 18.407201
LeftArm 118.390998 -52.422904 -73.031048
LeftForeArm 8.341724 -0.000000 26.279473
LeftHand -42.000622 -0.000000 91.609542
LeftHandThumb1 -26.253704 0.000000 33.147579
RightShoulder -14.702840 19.110191 -28.614708
RightArm 103.029097 39.117636 55.380607
RightForeArm -11.956996 -0.000000 29.167055
RightHand -6.856381 0.000000 -77.532545
RightHandThumb1 -24.326973 -0.000000 -32.862282
LeftUpLeg -77.533379 28.151798 17.004952
LeftLeg 7.567309 -0.000000 -0.000000
LeftFoot 25.972217 28.232930 -14.901186
LeftToeBase 6.182985 -0.000000 -0.000000
RightUpLeg 22.423491 12.170132 -28.429562
RightLeg 93.063534 -0.000000 -0.000000
RightFoot 36.700881 -16.463353 -2.773563
RightToeBase 16.573114 -0.000000 -0.000000
642
root -13.206326 35.600742 -0.378830 214.732394 -66.057714 -26.564267
Spine -31.077415 14.418412 -5.806655
Head -88.808704 8.755403 -3.640545
LeftShoulder -21.515250 5.113013 18.580456
LeftArm 118.003056 -52.280594 -72.795576
LeftForeArm 8.309609 -0.000000 26.307956
LeftHand -41.995330 0.000000 91.611303
LeftHandThumb1 -26.253704 0.000000 33.147579
RightShoulder -14.606041 19.061131 -28.519969
RightArm 103.021029 39.408066 55.245113
RightForeArm -11.920271 -0.000000 29.127142
RightHand -6.879042 -0.000000 -77.415805
RightHandThumb1 -24.326973 -0.000000 -32.862282
LeftUpLeg -78.238769 28.109646 16.657572
LeftLeg 7.448105 -0.000000 -0.000000
LeftFoot 24.982526 27.903498 -15.265300
LeftToeBase 5.954303 -0.000000 -0.000000
RightUpLeg 22.102329 12.238540 -28.344524
RightLeg 90.963551 -0.000000 -0.000000
RightFoot 36.871711 -16.274364 -2.954756
RightToeBase 17.119629 -0.000000 -0.000000
643
root -13.116684 35.603538 -0.346482 214.828546 -65.909772 -27.127047
Spine -30.636825 14.520843 -5.964805
Head -88.993479 8.536179 -3.753690
LeftShoulder -21.544501 4.803380 18.756362
LeftArm 117.435745 -52.167077 -72.455263
LeftForeArm 8.260562 -0.000000 26.433262
LeftHand -42.040531 -0.000000 91.628115
LeftHandThumb1 -26.253704 0.000000 33.147579
RightShoulder -14.505492 19.027553 -28.443525
RightArm 103.049399 39.664744 55.147314
RightForeArm -11.908757 0.000000 29.095250
RightHand -6.889683 0.000000 -77.243117
RightHandThumb1 -24.326973 -0.000000 -32.862282
LeftUpLeg -78.942288 28.126677 16.359445
LeftLeg 7.334384 -0.000000 -0.000000
LeftFoot 23.965602 27.743093 -16.004263
LeftToeBase 4.562798 -0.000000 -0.000000
RightUpLeg 21.780616 12.370414 -28.248152
RightLeg 88.858056 -0.000000 -0.000000
RightFoot 37.175554 -15.947731 -3.345241
RightToeBase 15.130986 -0.000000 -0.000000
644
root -13.054845 35.601914 -0.289859 215.108504 -65.537945 -27.647973
Spine -30.398417 14.797621 -6.299406
Head -89.205737 8.358560 -3.892416
LeftShoulder -21.557374 4.464343 18.885764
LeftArm 116.826222 -52.179456 -71.936929
LeftForeArm 8.061370 -0.000000 26.456567
LeftHand -42.043505 -0.000000 91.721945
LeftHandThumb1 -26.253704 0.000000 33.147579
RightShoulder -14.414877 18.992081 -28.381550
RightArm 103.121189 39.936992 55.124137
RightForeArm -11.971890 0.000000 29.095143
RightHand -6.911875 -0.000000 -77.041198
RightHandThumb1 -24.326973 -0.000000 -32.862282
LeftUpLeg -79.842034 28.319930 15.993564
LeftLeg 7.255253 -0.000000 -0.000000
LeftFoot 22.951854 27.590795 -16.648382
LeftToeBase 3.378134 -0.000000 -0.000000
RightUpLeg 21.002311 12.493368 -28.449727
RightLeg 86.986640 -0.000000 -0.000000
RightFoot 37.495691 -15.332265 -4.171518
RightToeBase 15.556770 -0.000000 -0.000000
